# xmcd
#
# Track frame offsets:
#	150
#	12450
#	22028
#	34411
#	44506
#	53124
#	64959
#	81797
#	94412
#	104155
#	129295
#
# Disc length: 1867 seconds
#
# Revision: 1
# Processed by: cddbd v1.5.2PL0 Copyright (c) Steve Scherf et al.
# Submitted via: audiograbber 1.83.01
#
DISCID=9d07490b
DTITLE=Elvis - The Wonderful World Of Christmas
DYEAR=1971
DGENRE=Country
TTITLE0=O Come All Ye Faithful
TTITLE1=The First Noel
TTITLE2=On A Snowy Christmas Night
TTITLE3=Winter Wonderland
TTITLE4=The Wonderful World Of Christmas
TTITLE5=It Won't Seem Like Christmas
TTITLE6=I'll Be Home
TTITLE7=If I Get Home On Christmas Day
TTITLE8=Holly Leaves And Christmas Trees
TTITLE9=Merry Chirstmas Baby
TTITLE10=Silver Bells
EXTD=
EXTT0=This CD was made off one of my LP's\n
EXTT1=
EXTT2=
EXTT3=
EXTT4=
EXTT5=
EXTT6=
EXTT7=
EXTT8=
EXTT9=
EXTT10=
PLAYORDER=
